<?xml version="1.0" encoding="UTF-8" standalone="no"?>
<!DOCTYPE svg PUBLIC "-//W3C//DTD SVG 1.1//EN"
 "http://www.w3.org/Graphics/SVG/1.1/DTD/svg11.dtd">
<!-- Generated by graphviz version 14.0.4 (20251115.1723)
 -->
<!-- Pages: 1 -->
<svg width="830pt" height="957pt"
 viewBox="0.00 0.00 830.00 957.00" xmlns="http://www.w3.org/2000/svg" xmlns:xlink="http://www.w3.org/1999/xlink">
<g id="graph0" class="graph" transform="scale(1 1) rotate(0) translate(14.4 942.18)">
<polygon fill="white" stroke="none" points="-14.4,14.4 -14.4,-942.18 815.47,-942.18 815.47,14.4 -14.4,14.4"/>
<!-- customers -->
<g id="node1" class="node">
<title>customers</title>
<path fill="none" stroke="black" d="M195.58,-201.75C195.58,-201.75 330.66,-201.75 330.66,-201.75 336.66,-201.75 342.66,-207.75 342.66,-213.75 342.66,-213.75 342.66,-443.65 342.66,-443.65 342.66,-449.65 336.66,-455.65 330.66,-455.65 330.66,-455.65 195.58,-455.65 195.58,-455.65 189.58,-455.65 183.58,-449.65 183.58,-443.65 183.58,-443.65 183.58,-213.75 183.58,-213.75 183.58,-207.75 189.58,-201.75 195.58,-201.75"/>
<text xml:space="preserve" text-anchor="start" x="209.87" y="-439.75" font-family="Times,serif" font-size="14.00"> &#160;&#160;&#160;&#160;&#160;&#160;&#160;&#160;&#160;</text>
<text xml:space="preserve" text-anchor="start" x="247.37" y="-439.75" font-family="Helvetica bold" font-weight="bold" font-size="14.00">customers</text>
<polyline fill="none" stroke="black" points="183.58,-431.95 342.66,-431.95"/>
<text xml:space="preserve" text-anchor="start" x="192.62" y="-413.95" font-family="Times,serif" font-size="12.00">*+id</text>
<text xml:space="preserve" text-anchor="start" x="214.37" y="-413.95" font-family="Arial Italic" font-size="10.00" fill="#999999"> integer, not null</text>
<text xml:space="preserve" text-anchor="start" x="192.62" y="-395.7" font-family="Times,serif" font-size="12.00">+user_id</text>
<text xml:space="preserve" text-anchor="start" x="233.87" y="-395.7" font-family="Arial Italic" font-size="10.00" fill="#999999"> integer, null</text>
<text xml:space="preserve" text-anchor="start" x="192.62" y="-377.45" font-family="Times,serif" font-size="12.00">name</text>
<text xml:space="preserve" text-anchor="start" x="218.12" y="-377.45" font-family="Arial Italic" font-size="10.00" fill="#999999"> string, not null</text>
<text xml:space="preserve" text-anchor="start" x="192.62" y="-359.2" font-family="Times,serif" font-size="12.00">email</text>
<text xml:space="preserve" text-anchor="start" x="218.12" y="-359.2" font-family="Arial Italic" font-size="10.00" fill="#999999"> string, null</text>
<text xml:space="preserve" text-anchor="start" x="192.62" y="-340.95" font-family="Times,serif" font-size="12.00">phone</text>
<text xml:space="preserve" text-anchor="start" x="221.87" y="-340.95" font-family="Arial Italic" font-size="10.00" fill="#999999"> string, null</text>
<text xml:space="preserve" text-anchor="start" x="192.62" y="-322.7" font-family="Times,serif" font-size="12.00">whatsapp_number</text>
<text xml:space="preserve" text-anchor="start" x="279.62" y="-322.7" font-family="Arial Italic" font-size="10.00" fill="#999999"> string, null</text>
<text xml:space="preserve" text-anchor="start" x="192.62" y="-304.45" font-family="Times,serif" font-size="12.00">preferred_locale</text>
<text xml:space="preserve" text-anchor="start" x="269.12" y="-304.45" font-family="Arial Italic" font-size="10.00" fill="#999999"> string, not null</text>
<text xml:space="preserve" text-anchor="start" x="192.62" y="-286.2" font-family="Times,serif" font-size="12.00">address_line</text>
<text xml:space="preserve" text-anchor="start" x="251.12" y="-286.2" font-family="Arial Italic" font-size="10.00" fill="#999999"> string, null</text>
<text xml:space="preserve" text-anchor="start" x="192.62" y="-267.95" font-family="Times,serif" font-size="12.00">city</text>
<text xml:space="preserve" text-anchor="start" x="209.87" y="-267.95" font-family="Arial Italic" font-size="10.00" fill="#999999"> string, null</text>
<text xml:space="preserve" text-anchor="start" x="192.62" y="-249.7" font-family="Times,serif" font-size="12.00">notes</text>
<text xml:space="preserve" text-anchor="start" x="217.37" y="-249.7" font-family="Arial Italic" font-size="10.00" fill="#999999"> string, null</text>
<text xml:space="preserve" text-anchor="start" x="192.62" y="-231.45" font-family="Times,serif" font-size="12.00">created_at</text>
<text xml:space="preserve" text-anchor="start" x="240.62" y="-231.45" font-family="Arial Italic" font-size="10.00" fill="#999999"> datetime, null</text>
<text xml:space="preserve" text-anchor="start" x="192.62" y="-213.2" font-family="Times,serif" font-size="12.00">updated_at</text>
<text xml:space="preserve" text-anchor="start" x="244.37" y="-213.2" font-family="Arial Italic" font-size="10.00" fill="#999999"> datetime, null</text>
</g>
<!-- orders -->
<g id="node2" class="node">
<title>orders</title>
<path fill="none" stroke="black" d="M407.66,-419.25C407.66,-419.25 555.49,-419.25 555.49,-419.25 561.49,-419.25 567.49,-425.25 567.49,-431.25 567.49,-431.25 567.49,-734.15 567.49,-734.15 567.49,-740.15 561.49,-746.15 555.49,-746.15 555.49,-746.15 407.66,-746.15 407.66,-746.15 401.66,-746.15 395.66,-740.15 395.66,-734.15 395.66,-734.15 395.66,-431.25 395.66,-431.25 395.66,-425.25 401.66,-419.25 407.66,-419.25"/>
<text xml:space="preserve" text-anchor="start" x="441.82" y="-730.25" font-family="Times,serif" font-size="14.00"> &#160;&#160;&#160;&#160;&#160;&#160;&#160;&#160;&#160;</text>
<text xml:space="preserve" text-anchor="start" x="479.32" y="-730.25" font-family="Helvetica bold" font-weight="bold" font-size="14.00">orders</text>
<polyline fill="none" stroke="black" points="395.66,-722.45 567.49,-722.45"/>
<text xml:space="preserve" text-anchor="start" x="404.7" y="-704.45" font-family="Times,serif" font-size="12.00">*+id</text>
<text xml:space="preserve" text-anchor="start" x="426.45" y="-704.45" font-family="Arial Italic" font-size="10.00" fill="#999999"> integer, not null</text>
<text xml:space="preserve" text-anchor="start" x="404.7" y="-686.2" font-family="Times,serif" font-size="12.00">+customer_id</text>
<text xml:space="preserve" text-anchor="start" x="469.2" y="-686.2" font-family="Arial Italic" font-size="10.00" fill="#999999"> integer, not null</text>
<text xml:space="preserve" text-anchor="start" x="404.7" y="-667.95" font-family="Times,serif" font-size="12.00">order_number</text>
<text xml:space="preserve" text-anchor="start" x="471.45" y="-667.95" font-family="Arial Italic" font-size="10.00" fill="#999999"> string, not null</text>
<text xml:space="preserve" text-anchor="start" x="404.7" y="-649.7" font-family="Times,serif" font-size="12.00">status</text>
<text xml:space="preserve" text-anchor="start" x="430.95" y="-649.7" font-family="Arial Italic" font-size="10.00" fill="#999999"> string, not null</text>
<text xml:space="preserve" text-anchor="start" x="404.7" y="-631.45" font-family="Times,serif" font-size="12.00">payment_status</text>
<text xml:space="preserve" text-anchor="start" x="477.45" y="-631.45" font-family="Arial Italic" font-size="10.00" fill="#999999"> string, not null</text>
<text xml:space="preserve" text-anchor="start" x="404.7" y="-613.2" font-family="Times,serif" font-size="12.00">total</text>
<text xml:space="preserve" text-anchor="start" x="424.95" y="-613.2" font-family="Arial Italic" font-size="10.00" fill="#999999"> numeric, not null</text>
<text xml:space="preserve" text-anchor="start" x="404.7" y="-594.95" font-family="Times,serif" font-size="12.00">currency</text>
<text xml:space="preserve" text-anchor="start" x="445.95" y="-594.95" font-family="Arial Italic" font-size="10.00" fill="#999999"> string, not null</text>
<text xml:space="preserve" text-anchor="start" x="404.7" y="-576.7" font-family="Times,serif" font-size="12.00">locale</text>
<text xml:space="preserve" text-anchor="start" x="432.45" y="-576.7" font-family="Arial Italic" font-size="10.00" fill="#999999"> string, not null</text>
<text xml:space="preserve" text-anchor="start" x="404.7" y="-558.45" font-family="Times,serif" font-size="12.00">whatsapp_number</text>
<text xml:space="preserve" text-anchor="start" x="491.7" y="-558.45" font-family="Arial Italic" font-size="10.00" fill="#999999"> string, null</text>
<text xml:space="preserve" text-anchor="start" x="404.7" y="-540.2" font-family="Times,serif" font-size="12.00">delivery_address</text>
<text xml:space="preserve" text-anchor="start" x="484.2" y="-540.2" font-family="Arial Italic" font-size="10.00" fill="#999999"> string, null</text>
<text xml:space="preserve" text-anchor="start" x="404.7" y="-521.95" font-family="Times,serif" font-size="12.00">delivery_city</text>
<text xml:space="preserve" text-anchor="start" x="466.2" y="-521.95" font-family="Arial Italic" font-size="10.00" fill="#999999"> string, null</text>
<text xml:space="preserve" text-anchor="start" x="404.7" y="-503.7" font-family="Times,serif" font-size="12.00">delivery_notes</text>
<text xml:space="preserve" text-anchor="start" x="473.7" y="-503.7" font-family="Arial Italic" font-size="10.00" fill="#999999"> string, null</text>
<text xml:space="preserve" text-anchor="start" x="404.7" y="-485.45" font-family="Times,serif" font-size="12.00">tracking_code</text>
<text xml:space="preserve" text-anchor="start" x="471.45" y="-485.45" font-family="Arial Italic" font-size="10.00" fill="#999999"> string, not null</text>
<text xml:space="preserve" text-anchor="start" x="404.7" y="-467.2" font-family="Times,serif" font-size="12.00">delivery_eta_minutes</text>
<text xml:space="preserve" text-anchor="start" x="505.2" y="-467.2" font-family="Arial Italic" font-size="10.00" fill="#999999"> integer, null</text>
<text xml:space="preserve" text-anchor="start" x="404.7" y="-448.95" font-family="Times,serif" font-size="12.00">created_at</text>
<text xml:space="preserve" text-anchor="start" x="452.7" y="-448.95" font-family="Arial Italic" font-size="10.00" fill="#999999"> datetime, null</text>
<text xml:space="preserve" text-anchor="start" x="404.7" y="-430.7" font-family="Times,serif" font-size="12.00">updated_at</text>
<text xml:space="preserve" text-anchor="start" x="456.45" y="-430.7" font-family="Arial Italic" font-size="10.00" fill="#999999"> datetime, null</text>
</g>
<!-- customers&#45;&#45;orders -->
<g id="edge1" class="edge">
<title>customers&#45;&#45;orders</title>
<path fill="none" stroke="black" d="M348.51,-427.72C361.95,-443.5 375.91,-459.88 389.5,-475.83"/>
<polyline fill="none" stroke="black" points="342.88,-421.12 345.8,-424.54"/>
<polygon fill="black" stroke="black" points="342.96,-428.15 349.81,-422.31 350.97,-423.68 344.12,-429.52 342.96,-428.15"/>
<polyline fill="none" stroke="black" points="345.8,-424.54 348.72,-427.97"/>
<polygon fill="black" stroke="black" points="389.25,-475.53 392,-485.01 392.38,-479.21 394.87,-482.13 394.87,-482.13 394.87,-482.13 392.38,-479.21 398.17,-479.75 389.25,-475.53"/>
<text xml:space="preserve" text-anchor="start" x="382.16" y="-460.56" font-family="Times,serif" font-size="12.00">0..N</text>
<text xml:space="preserve" text-anchor="start" x="342.52" y="-434.65" font-family="Times,serif" font-size="12.00">1</text>
</g>
<!-- ratings -->
<g id="node3" class="node">
<title>ratings</title>
<path fill="none" stroke="black" d="M644.87,-256.25C644.87,-256.25 773.19,-256.25 773.19,-256.25 779.19,-256.25 785.19,-262.25 785.19,-268.25 785.19,-268.25 785.19,-425.15 785.19,-425.15 785.19,-431.15 779.19,-437.15 773.19,-437.15 773.19,-437.15 644.87,-437.15 644.87,-437.15 638.87,-437.15 632.87,-431.15 632.87,-425.15 632.87,-425.15 632.87,-268.25 632.87,-268.25 632.87,-262.25 638.87,-256.25 644.87,-256.25"/>
<text xml:space="preserve" text-anchor="start" x="667.78" y="-421.25" font-family="Times,serif" font-size="14.00"> &#160;&#160;&#160;&#160;&#160;&#160;&#160;&#160;&#160;</text>
<text xml:space="preserve" text-anchor="start" x="705.28" y="-421.25" font-family="Helvetica bold" font-weight="bold" font-size="14.00">ratings</text>
<polyline fill="none" stroke="black" points="632.87,-413.45 785.19,-413.45"/>
<text xml:space="preserve" text-anchor="start" x="641.9" y="-395.45" font-family="Times,serif" font-size="12.00">*id</text>
<text xml:space="preserve" text-anchor="start" x="656.9" y="-395.45" font-family="Arial Italic" font-size="10.00" fill="#999999"> integer, not null</text>
<text xml:space="preserve" text-anchor="start" x="641.9" y="-377.2" font-family="Times,serif" font-size="12.00">+order_id</text>
<text xml:space="preserve" text-anchor="start" x="688.4" y="-377.2" font-family="Arial Italic" font-size="10.00" fill="#999999"> integer, not null</text>
<text xml:space="preserve" text-anchor="start" x="641.9" y="-358.95" font-family="Times,serif" font-size="12.00">+customer_id</text>
<text xml:space="preserve" text-anchor="start" x="706.4" y="-358.95" font-family="Arial Italic" font-size="10.00" fill="#999999"> integer, not null</text>
<text xml:space="preserve" text-anchor="start" x="641.9" y="-340.7" font-family="Times,serif" font-size="12.00">score</text>
<text xml:space="preserve" text-anchor="start" x="666.65" y="-340.7" font-family="Arial Italic" font-size="10.00" fill="#999999"> integer, not null</text>
<text xml:space="preserve" text-anchor="start" x="641.9" y="-322.45" font-family="Times,serif" font-size="12.00">comment</text>
<text xml:space="preserve" text-anchor="start" x="685.4" y="-322.45" font-family="Arial Italic" font-size="10.00" fill="#999999"> text, null</text>
<text xml:space="preserve" text-anchor="start" x="641.9" y="-304.2" font-family="Times,serif" font-size="12.00">locale</text>
<text xml:space="preserve" text-anchor="start" x="669.65" y="-304.2" font-family="Arial Italic" font-size="10.00" fill="#999999"> string, not null</text>
<text xml:space="preserve" text-anchor="start" x="641.9" y="-285.95" font-family="Times,serif" font-size="12.00">created_at</text>
<text xml:space="preserve" text-anchor="start" x="689.9" y="-285.95" font-family="Arial Italic" font-size="10.00" fill="#999999"> datetime, null</text>
<text xml:space="preserve" text-anchor="start" x="641.9" y="-267.7" font-family="Times,serif" font-size="12.00">updated_at</text>
<text xml:space="preserve" text-anchor="start" x="693.65" y="-267.7" font-family="Arial Italic" font-size="10.00" fill="#999999"> datetime, null</text>
</g>
<!-- customers&#45;&#45;ratings -->
<g id="edge2" class="edge">
<title>customers&#45;&#45;ratings</title>
<path fill="none" stroke="black" d="M351.77,-332.25C430.49,-335.45 545.35,-340.1 623.2,-343.26"/>
<polyline fill="none" stroke="black" points="342.97,-331.9 347.47,-332.08"/>
<polygon fill="black" stroke="black" points="348.18,-336.61 348.55,-327.62 350.35,-327.69 349.98,-336.69 348.18,-336.61"/>
<polyline fill="none" stroke="black" points="347.47,-332.08 351.96,-332.26"/>
<polygon fill="black" stroke="black" points="623.18,-343.26 632.01,-347.67 628.01,-343.46 631.84,-343.61 631.84,-343.61 631.84,-343.61 628.01,-343.46 632.34,-339.58 623.18,-343.26"/>
<text xml:space="preserve" text-anchor="start" x="607.14" y="-329.21" font-family="Times,serif" font-size="12.00">0..N</text>
<text xml:space="preserve" text-anchor="start" x="354.84" y="-337.77" font-family="Times,serif" font-size="12.00">1</text>
</g>
<!-- users -->
<g id="node4" class="node">
<title>users</title>
<path fill="none" stroke="black" d="M394.16,-0.5C394.16,-0.5 568.99,-0.5 568.99,-0.5 574.99,-0.5 580.99,-6.5 580.99,-12.5 580.99,-12.5 580.99,-278.9 580.99,-278.9 580.99,-284.9 574.99,-290.9 568.99,-290.9 568.99,-290.9 394.16,-290.9 394.16,-290.9 388.16,-290.9 382.16,-284.9 382.16,-278.9 382.16,-278.9 382.16,-12.5 382.16,-12.5 382.16,-6.5 388.16,-0.5 394.16,-0.5"/>
<text xml:space="preserve" text-anchor="start" x="444.82" y="-275" font-family="Times,serif" font-size="14.00"> &#160;&#160;&#160;&#160;&#160;&#160;&#160;&#160;&#160;</text>
<text xml:space="preserve" text-anchor="start" x="482.32" y="-275" font-family="Helvetica bold" font-weight="bold" font-size="14.00">users</text>
<polyline fill="none" stroke="black" points="382.16,-267.2 580.99,-267.2"/>
<text xml:space="preserve" text-anchor="start" x="391.2" y="-249.2" font-family="Times,serif" font-size="12.00">*+id</text>
<text xml:space="preserve" text-anchor="start" x="412.95" y="-249.2" font-family="Arial Italic" font-size="10.00" fill="#999999"> integer, not null</text>
<text xml:space="preserve" text-anchor="start" x="391.2" y="-230.95" font-family="Times,serif" font-size="12.00">name</text>
<text xml:space="preserve" text-anchor="start" x="416.7" y="-230.95" font-family="Arial Italic" font-size="10.00" fill="#999999"> string, not null</text>
<text xml:space="preserve" text-anchor="start" x="391.2" y="-212.7" font-family="Times,serif" font-size="12.00">email</text>
<text xml:space="preserve" text-anchor="start" x="416.7" y="-212.7" font-family="Arial Italic" font-size="10.00" fill="#999999"> string, not null</text>
<text xml:space="preserve" text-anchor="start" x="391.2" y="-194.45" font-family="Times,serif" font-size="12.00">email_verified_at</text>
<text xml:space="preserve" text-anchor="start" x="472.95" y="-194.45" font-family="Arial Italic" font-size="10.00" fill="#999999"> datetime, null</text>
<text xml:space="preserve" text-anchor="start" x="391.2" y="-176.2" font-family="Times,serif" font-size="12.00">password</text>
<text xml:space="preserve" text-anchor="start" x="436.2" y="-176.2" font-family="Arial Italic" font-size="10.00" fill="#999999"> string, not null</text>
<text xml:space="preserve" text-anchor="start" x="391.2" y="-157.95" font-family="Times,serif" font-size="12.00">remember_token</text>
<text xml:space="preserve" text-anchor="start" x="470.7" y="-157.95" font-family="Arial Italic" font-size="10.00" fill="#999999"> string, null</text>
<text xml:space="preserve" text-anchor="start" x="391.2" y="-139.7" font-family="Times,serif" font-size="12.00">created_at</text>
<text xml:space="preserve" text-anchor="start" x="439.2" y="-139.7" font-family="Arial Italic" font-size="10.00" fill="#999999"> datetime, null</text>
<text xml:space="preserve" text-anchor="start" x="391.2" y="-121.45" font-family="Times,serif" font-size="12.00">updated_at</text>
<text xml:space="preserve" text-anchor="start" x="442.95" y="-121.45" font-family="Arial Italic" font-size="10.00" fill="#999999"> datetime, null</text>
<text xml:space="preserve" text-anchor="start" x="391.2" y="-103.2" font-family="Times,serif" font-size="12.00">is_admin</text>
<text xml:space="preserve" text-anchor="start" x="433.95" y="-103.2" font-family="Arial Italic" font-size="10.00" fill="#999999"> tinyint(1), not null</text>
<text xml:space="preserve" text-anchor="start" x="391.2" y="-84.95" font-family="Times,serif" font-size="12.00">preferred_locale</text>
<text xml:space="preserve" text-anchor="start" x="467.7" y="-84.95" font-family="Arial Italic" font-size="10.00" fill="#999999"> string, not null</text>
<text xml:space="preserve" text-anchor="start" x="391.2" y="-66.7" font-family="Times,serif" font-size="12.00">two_factor_secret</text>
<text xml:space="preserve" text-anchor="start" x="475.2" y="-66.7" font-family="Arial Italic" font-size="10.00" fill="#999999"> text, null</text>
<text xml:space="preserve" text-anchor="start" x="391.2" y="-48.45" font-family="Times,serif" font-size="12.00">two_factor_recovery_codes</text>
<text xml:space="preserve" text-anchor="start" x="522.45" y="-48.45" font-family="Arial Italic" font-size="10.00" fill="#999999"> text, null</text>
<text xml:space="preserve" text-anchor="start" x="391.2" y="-30.2" font-family="Times,serif" font-size="12.00">two_factor_confirmed_at</text>
<text xml:space="preserve" text-anchor="start" x="510.45" y="-30.2" font-family="Arial Italic" font-size="10.00" fill="#999999"> datetime, null</text>
<text xml:space="preserve" text-anchor="start" x="391.2" y="-11.95" font-family="Times,serif" font-size="12.00">mobile</text>
<text xml:space="preserve" text-anchor="start" x="423.45" y="-11.95" font-family="Arial Italic" font-size="10.00" fill="#999999"> string, null</text>
</g>
<!-- customers&#45;&#45;users -->
<g id="edge3" class="edge">
<title>customers&#45;&#45;users</title>
<path fill="none" stroke="black" d="M349.47,-256.54C357.8,-249.5 366.31,-242.3 374.81,-235.12"/>
<polyline fill="none" stroke="black" points="342.88,-262.12 346.31,-259.21"/>
<polygon fill="black" stroke="black" points="349.91,-262.07 344.1,-255.19 345.47,-254.03 351.28,-260.9 349.91,-262.07"/>
<polyline fill="none" stroke="black" points="346.31,-259.21 349.75,-256.3"/>
<polygon fill="black" stroke="black" points="374.81,-235.12 384.3,-232.4 378.5,-232 381.43,-229.53 381.43,-229.53 381.43,-229.53 378.5,-232 379.07,-226.22 374.81,-235.12"/>
<text xml:space="preserve" text-anchor="start" x="353.62" y="-227.39" font-family="Times,serif" font-size="12.00">0..N</text>
<text xml:space="preserve" text-anchor="start" x="357.69" y="-255.27" font-family="Times,serif" font-size="12.00">1</text>
</g>
<!-- orders&#45;&#45;ratings -->
<g id="edge9" class="edge">
<title>orders&#45;&#45;ratings</title>
<path fill="none" stroke="black" d="M573.84,-487.17C591.24,-468.95 609.35,-450 626.42,-432.13"/>
<polyline fill="none" stroke="black" points="567.81,-493.48 570.92,-490.22"/>
<polygon fill="black" stroke="black" points="574.79,-492.68 568.29,-486.47 569.53,-485.16 576.04,-491.38 574.79,-492.68"/>
<polyline fill="none" stroke="black" points="570.92,-490.22 574.03,-486.97"/>
<polygon fill="black" stroke="black" points="626.21,-432.34 635.36,-428.63 629.55,-428.85 632.2,-426.08 632.2,-426.08 632.2,-426.08 629.55,-428.85 629.5,-423.04 626.21,-432.34"/>
<text xml:space="preserve" text-anchor="start" x="604.72" y="-425.77" font-family="Times,serif" font-size="12.00">0..N</text>
<text xml:space="preserve" text-anchor="start" x="582.25" y="-484.75" font-family="Times,serif" font-size="12.00">1</text>
</g>
<!-- payments -->
<g id="node9" class="node">
<title>payments</title>
<path fill="none" stroke="black" d="M648.99,-474C648.99,-474 769.07,-474 769.07,-474 775.07,-474 781.07,-480 781.07,-486 781.07,-486 781.07,-679.4 781.07,-679.4 781.07,-685.4 775.07,-691.4 769.07,-691.4 769.07,-691.4 648.99,-691.4 648.99,-691.4 642.99,-691.4 636.99,-685.4 636.99,-679.4 636.99,-679.4 636.99,-486 636.99,-486 636.99,-480 642.99,-474 648.99,-474"/>
<text xml:space="preserve" text-anchor="start" x="658.4" y="-675.5" font-family="Times,serif" font-size="14.00"> &#160;&#160;&#160;&#160;&#160;&#160;&#160;&#160;&#160;</text>
<text xml:space="preserve" text-anchor="start" x="695.9" y="-675.5" font-family="Helvetica bold" font-weight="bold" font-size="14.00">payments</text>
<polyline fill="none" stroke="black" points="636.99,-667.7 781.07,-667.7"/>
<text xml:space="preserve" text-anchor="start" x="646.03" y="-649.7" font-family="Times,serif" font-size="12.00">*id</text>
<text xml:space="preserve" text-anchor="start" x="661.03" y="-649.7" font-family="Arial Italic" font-size="10.00" fill="#999999"> integer, not null</text>
<text xml:space="preserve" text-anchor="start" x="646.03" y="-631.45" font-family="Times,serif" font-size="12.00">+order_id</text>
<text xml:space="preserve" text-anchor="start" x="692.53" y="-631.45" font-family="Arial Italic" font-size="10.00" fill="#999999"> integer, not null</text>
<text xml:space="preserve" text-anchor="start" x="646.03" y="-613.2" font-family="Times,serif" font-size="12.00">provider</text>
<text xml:space="preserve" text-anchor="start" x="685.78" y="-613.2" font-family="Arial Italic" font-size="10.00" fill="#999999"> string, not null</text>
<text xml:space="preserve" text-anchor="start" x="646.03" y="-594.95" font-family="Times,serif" font-size="12.00">status</text>
<text xml:space="preserve" text-anchor="start" x="672.28" y="-594.95" font-family="Arial Italic" font-size="10.00" fill="#999999"> string, not null</text>
<text xml:space="preserve" text-anchor="start" x="646.03" y="-576.7" font-family="Times,serif" font-size="12.00">amount</text>
<text xml:space="preserve" text-anchor="start" x="681.28" y="-576.7" font-family="Arial Italic" font-size="10.00" fill="#999999"> numeric, not null</text>
<text xml:space="preserve" text-anchor="start" x="646.03" y="-558.45" font-family="Times,serif" font-size="12.00">currency</text>
<text xml:space="preserve" text-anchor="start" x="687.28" y="-558.45" font-family="Arial Italic" font-size="10.00" fill="#999999"> string, not null</text>
<text xml:space="preserve" text-anchor="start" x="646.03" y="-540.2" font-family="Times,serif" font-size="12.00">reference</text>
<text xml:space="preserve" text-anchor="start" x="689.53" y="-540.2" font-family="Arial Italic" font-size="10.00" fill="#999999"> string, null</text>
<text xml:space="preserve" text-anchor="start" x="646.03" y="-521.95" font-family="Times,serif" font-size="12.00">meta</text>
<text xml:space="preserve" text-anchor="start" x="668.53" y="-521.95" font-family="Arial Italic" font-size="10.00" fill="#999999"> text, null</text>
<text xml:space="preserve" text-anchor="start" x="646.03" y="-503.7" font-family="Times,serif" font-size="12.00">created_at</text>
<text xml:space="preserve" text-anchor="start" x="694.03" y="-503.7" font-family="Arial Italic" font-size="10.00" fill="#999999"> datetime, null</text>
<text xml:space="preserve" text-anchor="start" x="646.03" y="-485.45" font-family="Times,serif" font-size="12.00">updated_at</text>
<text xml:space="preserve" text-anchor="start" x="697.78" y="-485.45" font-family="Arial Italic" font-size="10.00" fill="#999999"> datetime, null</text>
</g>
<!-- orders&#45;&#45;payments -->
<g id="edge8" class="edge">
<title>orders&#45;&#45;payments</title>
<path fill="none" stroke="black" d="M576.66,-582.7C593.59,-582.7 611.1,-582.7 627.6,-582.7"/>
<polyline fill="none" stroke="black" points="567.81,-582.7 572.31,-582.7"/>
<polygon fill="black" stroke="black" points="573.21,-587.2 573.21,-578.2 575.01,-578.2 575.01,-587.2 573.21,-587.2"/>
<polyline fill="none" stroke="black" points="572.31,-582.7 576.81,-582.7"/>
<polygon fill="black" stroke="black" points="627.32,-582.7 636.32,-586.75 632.15,-582.7 635.98,-582.7 635.98,-582.7 635.98,-582.7 632.15,-582.7 636.32,-578.65 627.32,-582.7"/>
<text xml:space="preserve" text-anchor="start" x="610.89" y="-568.89" font-family="Times,serif" font-size="12.00">0..N</text>
<text xml:space="preserve" text-anchor="start" x="580.07" y="-587.96" font-family="Times,serif" font-size="12.00">1</text>
</g>
<!-- whatsapp_messages -->
<g id="node10" class="node">
<title>whatsapp_messages</title>
<path fill="none" stroke="black" d="M628.99,-728.12C628.99,-728.12 789.07,-728.12 789.07,-728.12 795.07,-728.12 801.07,-734.12 801.07,-740.12 801.07,-740.12 801.07,-915.28 801.07,-915.28 801.07,-921.28 795.07,-927.28 789.07,-927.28 789.07,-927.28 628.99,-927.28 628.99,-927.28 622.99,-927.28 616.99,-921.28 616.99,-915.28 616.99,-915.28 616.99,-740.12 616.99,-740.12 616.99,-734.12 622.99,-728.12 628.99,-728.12"/>
<text xml:space="preserve" text-anchor="start" x="622.03" y="-911.38" font-family="Times,serif" font-size="14.00"> &#160;&#160;&#160;&#160;&#160;&#160;&#160;&#160;&#160;</text>
<text xml:space="preserve" text-anchor="start" x="659.53" y="-911.38" font-family="Helvetica bold" font-weight="bold" font-size="14.00">whatsapp_messages</text>
<polyline fill="none" stroke="black" points="616.99,-903.58 801.07,-903.58"/>
<text xml:space="preserve" text-anchor="start" x="646.03" y="-885.58" font-family="Times,serif" font-size="12.00">*id</text>
<text xml:space="preserve" text-anchor="start" x="661.03" y="-885.58" font-family="Arial Italic" font-size="10.00" fill="#999999"> integer, not null</text>
<text xml:space="preserve" text-anchor="start" x="646.03" y="-867.33" font-family="Times,serif" font-size="12.00">+order_id</text>
<text xml:space="preserve" text-anchor="start" x="692.53" y="-867.33" font-family="Arial Italic" font-size="10.00" fill="#999999"> integer, null</text>
<text xml:space="preserve" text-anchor="start" x="646.03" y="-849.08" font-family="Times,serif" font-size="12.00">direction</text>
<text xml:space="preserve" text-anchor="start" x="687.28" y="-849.08" font-family="Arial Italic" font-size="10.00" fill="#999999"> string, not null</text>
<text xml:space="preserve" text-anchor="start" x="646.03" y="-830.83" font-family="Times,serif" font-size="12.00">type</text>
<text xml:space="preserve" text-anchor="start" x="666.28" y="-830.83" font-family="Arial Italic" font-size="10.00" fill="#999999"> string, null</text>
<text xml:space="preserve" text-anchor="start" x="646.03" y="-812.58" font-family="Times,serif" font-size="12.00">recipient</text>
<text xml:space="preserve" text-anchor="start" x="686.53" y="-812.58" font-family="Arial Italic" font-size="10.00" fill="#999999"> string, not null</text>
<text xml:space="preserve" text-anchor="start" x="646.03" y="-794.33" font-family="Times,serif" font-size="12.00">body</text>
<text xml:space="preserve" text-anchor="start" x="670.03" y="-794.33" font-family="Arial Italic" font-size="10.00" fill="#999999"> text, not null</text>
<text xml:space="preserve" text-anchor="start" x="646.03" y="-776.08" font-family="Times,serif" font-size="12.00">payload</text>
<text xml:space="preserve" text-anchor="start" x="683.53" y="-776.08" font-family="Arial Italic" font-size="10.00" fill="#999999"> text, null</text>
<text xml:space="preserve" text-anchor="start" x="646.03" y="-757.83" font-family="Times,serif" font-size="12.00">created_at</text>
<text xml:space="preserve" text-anchor="start" x="694.03" y="-757.83" font-family="Arial Italic" font-size="10.00" fill="#999999"> datetime, null</text>
<text xml:space="preserve" text-anchor="start" x="646.03" y="-739.58" font-family="Times,serif" font-size="12.00">updated_at</text>
<text xml:space="preserve" text-anchor="start" x="697.78" y="-739.58" font-family="Arial Italic" font-size="10.00" fill="#999999"> datetime, null</text>
</g>
<!-- orders&#45;&#45;whatsapp_messages -->
<g id="edge10" class="edge">
<title>orders&#45;&#45;whatsapp_messages</title>
<path fill="none" stroke="black" d="M573.83,-681.87C585.85,-694.93 598.21,-708.36 610.34,-721.54"/>
<polyline fill="none" stroke="black" points="567.81,-675.32 570.86,-678.64"/>
<polygon fill="black" stroke="black" points="568.16,-682.34 574.78,-676.25 576,-677.57 569.37,-683.67 568.16,-682.34"/>
<polyline fill="none" stroke="black" points="570.86,-678.64 573.9,-681.95"/>
<polygon fill="black" stroke="black" points="610.33,-721.53 613.45,-730.9 613.61,-725.09 616.2,-727.91 616.2,-727.91 616.2,-727.91 613.61,-725.09 619.41,-725.41 610.33,-721.53"/>
<text xml:space="preserve" text-anchor="start" x="602.84" y="-706.44" font-family="Times,serif" font-size="12.00">0..N</text>
<text xml:space="preserve" text-anchor="start" x="568.13" y="-688.74" font-family="Times,serif" font-size="12.00">1</text>
</g>
<!-- delivery_trackings -->
<g id="node5" class="node">
<title>delivery_trackings</title>
<path fill="none" stroke="black" d="M192.08,-710.25C192.08,-710.25 334.16,-710.25 334.16,-710.25 340.16,-710.25 346.16,-716.25 346.16,-722.25 346.16,-722.25 346.16,-879.15 346.16,-879.15 346.16,-885.15 340.16,-891.15 334.16,-891.15 334.16,-891.15 192.08,-891.15 192.08,-891.15 186.08,-891.15 180.08,-885.15 180.08,-879.15 180.08,-879.15 180.08,-722.25 180.08,-722.25 180.08,-716.25 186.08,-710.25 192.08,-710.25"/>
<text xml:space="preserve" text-anchor="start" x="185.12" y="-875.25" font-family="Times,serif" font-size="14.00"> &#160;&#160;&#160;&#160;&#160;&#160;&#160;&#160;&#160;</text>
<text xml:space="preserve" text-anchor="start" x="222.62" y="-875.25" font-family="Helvetica bold" font-weight="bold" font-size="14.00">delivery_trackings</text>
<polyline fill="none" stroke="black" points="180.08,-867.45 346.16,-867.45"/>
<text xml:space="preserve" text-anchor="start" x="200.12" y="-849.45" font-family="Times,serif" font-size="12.00">*id</text>
<text xml:space="preserve" text-anchor="start" x="215.12" y="-849.45" font-family="Arial Italic" font-size="10.00" fill="#999999"> integer, not null</text>
<text xml:space="preserve" text-anchor="start" x="200.12" y="-831.2" font-family="Times,serif" font-size="12.00">+order_id</text>
<text xml:space="preserve" text-anchor="start" x="246.62" y="-831.2" font-family="Arial Italic" font-size="10.00" fill="#999999"> integer, not null</text>
<text xml:space="preserve" text-anchor="start" x="200.12" y="-812.95" font-family="Times,serif" font-size="12.00">status</text>
<text xml:space="preserve" text-anchor="start" x="226.37" y="-812.95" font-family="Arial Italic" font-size="10.00" fill="#999999"> string, not null</text>
<text xml:space="preserve" text-anchor="start" x="200.12" y="-794.7" font-family="Times,serif" font-size="12.00">location</text>
<text xml:space="preserve" text-anchor="start" x="237.62" y="-794.7" font-family="Arial Italic" font-size="10.00" fill="#999999"> string, null</text>
<text xml:space="preserve" text-anchor="start" x="200.12" y="-776.45" font-family="Times,serif" font-size="12.00">eta</text>
<text xml:space="preserve" text-anchor="start" x="213.62" y="-776.45" font-family="Arial Italic" font-size="10.00" fill="#999999"> string, null</text>
<text xml:space="preserve" text-anchor="start" x="200.12" y="-758.2" font-family="Times,serif" font-size="12.00">notes</text>
<text xml:space="preserve" text-anchor="start" x="224.87" y="-758.2" font-family="Arial Italic" font-size="10.00" fill="#999999"> text, null</text>
<text xml:space="preserve" text-anchor="start" x="200.12" y="-739.95" font-family="Times,serif" font-size="12.00">created_at</text>
<text xml:space="preserve" text-anchor="start" x="248.12" y="-739.95" font-family="Arial Italic" font-size="10.00" fill="#999999"> datetime, null</text>
<text xml:space="preserve" text-anchor="start" x="200.12" y="-721.7" font-family="Times,serif" font-size="12.00">updated_at</text>
<text xml:space="preserve" text-anchor="start" x="251.87" y="-721.7" font-family="Arial Italic" font-size="10.00" fill="#999999"> datetime, null</text>
</g>
<!-- delivery_trackings&#45;&#45;orders -->
<g id="edge4" class="edge">
<title>delivery_trackings&#45;&#45;orders</title>
<path fill="none" stroke="black" d="M352.61,-711.58C364.56,-699.55 376.84,-687.18 388.84,-675.09"/>
<polyline fill="none" stroke="black" points="346.57,-717.66 349.74,-714.47"/>
<polygon fill="black" stroke="black" points="353.57,-717 347.18,-710.66 348.45,-709.38 354.84,-715.72 353.57,-717"/>
<polyline fill="none" stroke="black" points="349.74,-714.47 352.91,-711.28"/>
<polygon fill="black" stroke="black" points="388.9,-675.03 398.12,-671.49 392.31,-671.6 395.01,-668.88 395.01,-668.88 395.01,-668.88 392.31,-671.6 392.37,-665.79 388.9,-675.03"/>
<text xml:space="preserve" text-anchor="start" x="367.46" y="-668.24" font-family="Times,serif" font-size="12.00">0..N</text>
<text xml:space="preserve" text-anchor="start" x="361.09" y="-709.28" font-family="Times,serif" font-size="12.00">1</text>
</g>
<!-- meals -->
<g id="node6" class="node">
<title>meals</title>
<path fill="none" stroke="black" d="M12,-446.63C12,-446.63 132.08,-446.63 132.08,-446.63 138.08,-446.63 144.08,-452.63 144.08,-458.63 144.08,-458.63 144.08,-706.78 144.08,-706.78 144.08,-712.78 138.08,-718.78 132.08,-718.78 132.08,-718.78 12,-718.78 12,-718.78 6,-718.78 0,-712.78 0,-706.78 0,-706.78 0,-458.63 0,-458.63 0,-452.63 6,-446.63 12,-446.63"/>
<text xml:space="preserve" text-anchor="start" x="33.79" y="-702.88" font-family="Times,serif" font-size="14.00"> &#160;&#160;&#160;&#160;&#160;&#160;&#160;&#160;&#160;</text>
<text xml:space="preserve" text-anchor="start" x="71.29" y="-702.88" font-family="Helvetica bold" font-weight="bold" font-size="14.00">meals</text>
<polyline fill="none" stroke="black" points="0,-695.08 144.08,-695.08"/>
<text xml:space="preserve" text-anchor="start" x="9.04" y="-677.08" font-family="Times,serif" font-size="12.00">*+id</text>
<text xml:space="preserve" text-anchor="start" x="30.79" y="-677.08" font-family="Arial Italic" font-size="10.00" fill="#999999"> integer, not null</text>
<text xml:space="preserve" text-anchor="start" x="9.04" y="-658.83" font-family="Times,serif" font-size="12.00">slug</text>
<text xml:space="preserve" text-anchor="start" x="28.54" y="-658.83" font-family="Arial Italic" font-size="10.00" fill="#999999"> string, not null</text>
<text xml:space="preserve" text-anchor="start" x="9.04" y="-640.58" font-family="Times,serif" font-size="12.00">name_en</text>
<text xml:space="preserve" text-anchor="start" x="51.79" y="-640.58" font-family="Arial Italic" font-size="10.00" fill="#999999"> string, not null</text>
<text xml:space="preserve" text-anchor="start" x="9.04" y="-622.33" font-family="Times,serif" font-size="12.00">name_ar</text>
<text xml:space="preserve" text-anchor="start" x="49.54" y="-622.33" font-family="Arial Italic" font-size="10.00" fill="#999999"> string, not null</text>
<text xml:space="preserve" text-anchor="start" x="9.04" y="-604.08" font-family="Times,serif" font-size="12.00">description_en</text>
<text xml:space="preserve" text-anchor="start" x="78.04" y="-604.08" font-family="Arial Italic" font-size="10.00" fill="#999999"> text, null</text>
<text xml:space="preserve" text-anchor="start" x="9.04" y="-585.83" font-family="Times,serif" font-size="12.00">description_ar</text>
<text xml:space="preserve" text-anchor="start" x="75.79" y="-585.83" font-family="Arial Italic" font-size="10.00" fill="#999999"> text, null</text>
<text xml:space="preserve" text-anchor="start" x="9.04" y="-567.58" font-family="Times,serif" font-size="12.00">category_en</text>
<text xml:space="preserve" text-anchor="start" x="66.79" y="-567.58" font-family="Arial Italic" font-size="10.00" fill="#999999"> string, null</text>
<text xml:space="preserve" text-anchor="start" x="9.04" y="-549.33" font-family="Times,serif" font-size="12.00">category_ar</text>
<text xml:space="preserve" text-anchor="start" x="64.54" y="-549.33" font-family="Arial Italic" font-size="10.00" fill="#999999"> string, null</text>
<text xml:space="preserve" text-anchor="start" x="9.04" y="-531.08" font-family="Times,serif" font-size="12.00">price</text>
<text xml:space="preserve" text-anchor="start" x="32.29" y="-531.08" font-family="Arial Italic" font-size="10.00" fill="#999999"> numeric, not null</text>
<text xml:space="preserve" text-anchor="start" x="9.04" y="-512.83" font-family="Times,serif" font-size="12.00">image_url</text>
<text xml:space="preserve" text-anchor="start" x="56.29" y="-512.83" font-family="Arial Italic" font-size="10.00" fill="#999999"> string, null</text>
<text xml:space="preserve" text-anchor="start" x="9.04" y="-494.58" font-family="Times,serif" font-size="12.00">is_active</text>
<text xml:space="preserve" text-anchor="start" x="50.29" y="-494.58" font-family="Arial Italic" font-size="10.00" fill="#999999"> tinyint(1), not null</text>
<text xml:space="preserve" text-anchor="start" x="9.04" y="-476.33" font-family="Times,serif" font-size="12.00">created_at</text>
<text xml:space="preserve" text-anchor="start" x="57.04" y="-476.33" font-family="Arial Italic" font-size="10.00" fill="#999999"> datetime, null</text>
<text xml:space="preserve" text-anchor="start" x="9.04" y="-458.08" font-family="Times,serif" font-size="12.00">updated_at</text>
<text xml:space="preserve" text-anchor="start" x="60.79" y="-458.08" font-family="Arial Italic" font-size="10.00" fill="#999999"> datetime, null</text>
</g>
<!-- order_items -->
<g id="node7" class="node">
<title>order_items</title>
<path fill="none" stroke="black" d="M203.08,-492.25C203.08,-492.25 323.16,-492.25 323.16,-492.25 329.16,-492.25 335.16,-498.25 335.16,-504.25 335.16,-504.25 335.16,-661.15 335.16,-661.15 335.16,-667.15 329.16,-673.15 323.16,-673.15 323.16,-673.15 203.08,-673.15 203.08,-673.15 197.08,-673.15 191.08,-667.15 191.08,-661.15 191.08,-661.15 191.08,-504.25 191.08,-504.25 191.08,-498.25 197.08,-492.25 203.08,-492.25"/>
<text xml:space="preserve" text-anchor="start" x="205.37" y="-657.25" font-family="Times,serif" font-size="14.00"> &#160;&#160;&#160;&#160;&#160;&#160;&#160;&#160;&#160;</text>
<text xml:space="preserve" text-anchor="start" x="242.87" y="-657.25" font-family="Helvetica bold" font-weight="bold" font-size="14.00">order_items</text>
<polyline fill="none" stroke="black" points="191.08,-649.45 335.16,-649.45"/>
<text xml:space="preserve" text-anchor="start" x="200.12" y="-631.45" font-family="Times,serif" font-size="12.00">*id</text>
<text xml:space="preserve" text-anchor="start" x="215.12" y="-631.45" font-family="Arial Italic" font-size="10.00" fill="#999999"> integer, not null</text>
<text xml:space="preserve" text-anchor="start" x="200.12" y="-613.2" font-family="Times,serif" font-size="12.00">+order_id</text>
<text xml:space="preserve" text-anchor="start" x="246.62" y="-613.2" font-family="Arial Italic" font-size="10.00" fill="#999999"> integer, not null</text>
<text xml:space="preserve" text-anchor="start" x="200.12" y="-594.95" font-family="Times,serif" font-size="12.00">+meal_id</text>
<text xml:space="preserve" text-anchor="start" x="244.37" y="-594.95" font-family="Arial Italic" font-size="10.00" fill="#999999"> integer, not null</text>
<text xml:space="preserve" text-anchor="start" x="200.12" y="-576.7" font-family="Times,serif" font-size="12.00">quantity</text>
<text xml:space="preserve" text-anchor="start" x="238.37" y="-576.7" font-family="Arial Italic" font-size="10.00" fill="#999999"> integer, not null</text>
<text xml:space="preserve" text-anchor="start" x="200.12" y="-558.45" font-family="Times,serif" font-size="12.00">unit_price</text>
<text xml:space="preserve" text-anchor="start" x="247.37" y="-558.45" font-family="Arial Italic" font-size="10.00" fill="#999999"> numeric, not null</text>
<text xml:space="preserve" text-anchor="start" x="200.12" y="-540.2" font-family="Times,serif" font-size="12.00">total</text>
<text xml:space="preserve" text-anchor="start" x="220.37" y="-540.2" font-family="Arial Italic" font-size="10.00" fill="#999999"> numeric, not null</text>
<text xml:space="preserve" text-anchor="start" x="200.12" y="-521.95" font-family="Times,serif" font-size="12.00">created_at</text>
<text xml:space="preserve" text-anchor="start" x="248.12" y="-521.95" font-family="Arial Italic" font-size="10.00" fill="#999999"> datetime, null</text>
<text xml:space="preserve" text-anchor="start" x="200.12" y="-503.7" font-family="Times,serif" font-size="12.00">updated_at</text>
<text xml:space="preserve" text-anchor="start" x="251.87" y="-503.7" font-family="Arial Italic" font-size="10.00" fill="#999999"> datetime, null</text>
</g>
<!-- meals&#45;&#45;order_items -->
<g id="edge5" class="edge">
<title>meals&#45;&#45;order_items</title>
<path fill="none" stroke="black" d="M153.49,-582.7C162.8,-582.7 172.3,-582.7 181.61,-582.7"/>
<polyline fill="none" stroke="black" points="144.52,-582.7 149.02,-582.7"/>
<polygon fill="black" stroke="black" points="149.92,-587.2 149.92,-578.2 151.72,-578.2 151.72,-587.2 149.92,-587.2"/>
<polyline fill="none" stroke="black" points="149.02,-582.7 153.52,-582.7"/>
<polygon fill="black" stroke="black" points="181.52,-582.7 190.52,-586.75 186.35,-582.7 190.18,-582.7 190.18,-582.7 190.18,-582.7 186.35,-582.7 190.52,-578.65 181.52,-582.7"/>
<text xml:space="preserve" text-anchor="start" x="165.08" y="-568.89" font-family="Times,serif" font-size="12.00">0..N</text>
<text xml:space="preserve" text-anchor="start" x="156.79" y="-587.96" font-family="Times,serif" font-size="12.00">1</text>
</g>
<!-- order_items&#45;&#45;orders -->
<g id="edge7" class="edge">
<title>order_items&#45;&#45;orders</title>
<path fill="none" stroke="black" d="M344.2,-582.7C357.85,-582.7 372.14,-582.7 386.12,-582.7"/>
<polyline fill="none" stroke="black" points="335.6,-582.7 340.1,-582.7"/>
<polygon fill="black" stroke="black" points="341,-587.2 341,-578.2 342.8,-578.2 342.8,-587.2 341,-587.2"/>
<polyline fill="none" stroke="black" points="340.1,-582.7 344.6,-582.7"/>
<polygon fill="black" stroke="black" points="385.92,-582.7 394.92,-586.75 390.75,-582.7 394.58,-582.7 394.58,-582.7 394.58,-582.7 390.75,-582.7 394.92,-578.65 385.92,-582.7"/>
<text xml:space="preserve" text-anchor="start" x="369.49" y="-568.89" font-family="Times,serif" font-size="12.00">0..N</text>
<text xml:space="preserve" text-anchor="start" x="347.86" y="-587.96" font-family="Times,serif" font-size="12.00">1</text>
</g>
<!-- notifications -->
<g id="node8" class="node">
<title>notifications</title>
<path fill="none" stroke="black" d="M203.08,-127.7C203.08,-127.7 323.16,-127.7 323.16,-127.7 329.16,-127.7 335.16,-133.7 335.16,-139.7 335.16,-139.7 335.16,-151.7 335.16,-151.7 335.16,-157.7 329.16,-163.7 323.16,-163.7 323.16,-163.7 203.08,-163.7 203.08,-163.7 197.08,-163.7 191.08,-157.7 191.08,-151.7 191.08,-151.7 191.08,-139.7 191.08,-139.7 191.08,-133.7 197.08,-127.7 203.08,-127.7"/>
<text xml:space="preserve" text-anchor="start" x="204.24" y="-141.8" font-family="Times,serif" font-size="14.00"> &#160;&#160;&#160;&#160;&#160;&#160;&#160;&#160;&#160;</text>
<text xml:space="preserve" text-anchor="start" x="241.74" y="-141.8" font-family="Helvetica bold" font-weight="bold" font-size="14.00">notifications</text>
</g>
<!-- notifications&#45;&#45;users -->
<g id="edge6" class="edge">
<title>notifications&#45;&#45;users</title>
<path fill="none" stroke="black" d="M344.36,-145.7C353.5,-145.7 362.91,-145.7 372.33,-145.7"/>
<polyline fill="none" stroke="black" points="335.6,-145.7 340.1,-145.7"/>
<polygon fill="black" stroke="black" points="341,-150.2 341,-141.2 342.8,-141.2 342.8,-150.2 341,-150.2"/>
<polyline fill="none" stroke="black" points="340.1,-145.7 344.6,-145.7"/>
<polygon fill="black" stroke="black" points="372.41,-145.7 381.41,-149.75 377.24,-145.7 381.07,-145.7 381.07,-145.7 381.07,-145.7 377.24,-145.7 381.41,-141.65 372.41,-145.7"/>
<text xml:space="preserve" text-anchor="start" x="355.98" y="-131.89" font-family="Times,serif" font-size="12.00">0..N</text>
<text xml:space="preserve" text-anchor="start" x="347.86" y="-150.96" font-family="Times,serif" font-size="12.00">1</text>
</g>
</g>
</svg>
